<?xml version="1.0" encoding="utf-8"?>

<!-- Uploaded to: SVG Repo, www.svgrepo.com, Generator: SVG Repo Mixer Tools -->
<svg version="1.1" id="Icons" xmlns="http://www.w3.org/2000/svg" xmlns:xlink="http://www.w3.org/1999/xlink" height="25"
width="25"
	 viewBox="0 0 32 32" xml:space="preserve">
<style type="text/css">
	.st0{fill:#FFFFFF;}
	.st1{fill:#3A559F;}
	.st2{fill:#F4F4F4;}
	.st3{fill:#FF0084;}
	.st4{fill:#0063DB;}
	.st5{fill:#00ACED;}
	.st6{fill:#FFEC06;}
	.st7{fill:#FF0000;}
	.st8{fill:#25D366;}
	.st9{fill:#0088FF;}
	.st10{fill:#314358;}
	.st11{fill:#EE6996;}
	.st12{fill:#01AEF3;}
	.st13{fill:#FFFEFF;}
	.st14{fill:#F06A35;}
	.st15{fill:#00ADEF;}
	.st16{fill:#1769FF;}
	.st17{fill:#1AB7EA;}
	.st18{fill:#6001D1;}
	.st19{fill:#E41214;}
	.st20{fill:#05CE78;}
	.st21{fill:#7B519C;}
	.st22{fill:#FF4500;}
	.st23{fill:#00F076;}
	.st24{fill:#FFC900;}
	.st25{fill:#00D6FF;}
	.st26{fill:#FF3A44;}
	.st27{fill:#FF6A36;}
	.st28{fill:#0061FE;}
	.st29{fill:#F7981C;}
	.st30{fill:#EE1B22;}
	.st31{fill:#EF3561;}
	.st32{fill:none;stroke:#FFFFFF;stroke-width:2;stroke-miterlimit:10;}
	.st33{fill:#0097D3;}
	.st34{fill:#01308A;}
	.st35{fill:#019CDE;}
	.st36{fill:#FFD049;}
	.st37{fill:#16A05D;}
	.st38{fill:#4486F4;}
	.st39{fill:none;}
	.st40{fill:#34A853;}
	.st41{fill:#4285F4;}
	.st42{fill:#FBBC05;}
	.st43{fill:#EA4335;}
</style>
<path class="st21" d="M16,0C8.1,0,0,1.7,0,14c0,6.6,2.3,10.7,7,12.6v3.7c0,0.7,0.4,1.3,1,1.6C8.2,32,8.5,32,8.7,32
	c0.4,0,0.9-0.2,1.2-0.5l3.6-3.6c0.8,0,1.6,0.1,2.5,0.1c7.9,0,16-1.7,16-14S23.9,0,16,0z"/>
<g>
	<g>
		<path class="st0" d="M15.5,9.1c2.4,0,4.4,2,4.4,4.4c0,0.6,0.4,1,1,1s1-0.4,1-1c0-3.5-2.9-6.4-6.4-6.4c-0.6,0-1,0.4-1,1
			S14.9,9.1,15.5,9.1z"/>
		<path class="st0" d="M15.5,12.2c0.7,0,1.3,0.6,1.3,1.3c0,0.6,0.4,1,1,1s1-0.4,1-1c0-1.8-1.5-3.3-3.3-3.3c-0.6,0-1,0.4-1,1
			S14.9,12.2,15.5,12.2z"/>
		<path class="st0" d="M15.5,4c-0.6,0-1,0.4-1,1s0.4,1,1,1c4.1,0,7.5,3.4,7.5,7.5c0,0.6,0.4,1,1,1s1-0.4,1-1C25,8.3,20.7,4,15.5,4z"
			/>
		<path class="st0" d="M21.9,17.1L21.7,17c0,0-2.2-1.1-2.6-1.2c-0.8-0.3-1.6-0.1-2.1,0.6l-0.1,0.2c-0.2,0.3-0.5,0.7-0.7,0.9l0,0
			c-0.5-0.2-1.4-0.6-2.6-1.6c-0.8-0.7-1.4-1.6-1.7-2.1c0.1-0.1,0.1-0.1,0.2-0.2c0.1-0.1,0.2-0.2,0.3-0.3c0.2-0.2,0.3-0.4,0.5-0.7
			c0.2-0.5,0.2-1,0-1.6c-0.1-0.2-0.5-1.1-0.8-1.8l-0.4-0.8c-0.4-1-1-1.2-1.7-1.2C9.9,7,9.8,7,9.6,7c-0.8,0-1.5,0.3-2,0.8
			C7.1,8.3,6,9.4,6,11.6c0,1.8,1.1,3.5,1.7,4.4l0.1,0.1c1.9,2.8,4.3,4.8,6.7,5.8c2.1,0.9,3.3,1.1,4.1,1.1c0.4,0,0.7,0,0.9-0.1
			c1.3-0.3,2.8-1.2,3.2-2.4c0.2-0.7,0.5-1.9,0.1-2.6C22.6,17.5,22.2,17.3,21.9,17.1z"/>
	</g>
</g>
</svg>