<svg width="636" height="500" fill="none" xmlns="http://www.w3.org/2000/svg"><path fill-rule="evenodd" clip-rule="evenodd" d="M113.819 291.837c-34.97 0-63.581 28.13-63.581 62.513 0 34.381 28.61 62.511 63.581 62.511h419.229C589.674 416.861 636 371.31 636 315.638c0-55.674-46.326-101.225-102.952-101.226-23.943-.001-43.53-19.261-43.53-42.801 0-23.54 19.587-42.799 43.53-42.799 24.892 0 63.801-18.543 63.801-64.717S557.94 0 533.048 0H356.187c-8.728 0-15.868 7.02-15.868 15.601 0 8.58 7.14 15.601 15.868 15.601h15.238c12.644 0 22.993 10.174 22.993 22.605 0 12.433-10.349 22.606-22.993 22.606h-133.13c-33.99 0-55.723 7.444-59.446 47.561-3.723 40.117-67.177 34.2-67.177 34.2H34.648C15.591 158.174 0 173.503 0 192.239c0 18.736 15.591 34.067 34.648 34.067h144.146c18.329 0 33.326 14.744 33.326 32.764 0 18.024-14.997 32.767-33.326 32.767h-64.975zm72.749-275.92c0-8.79 7.127-15.917 15.919-15.917h89.738c8.791 0 15.919 7.126 15.919 15.917 0 8.79-7.128 15.917-15.919 15.917h-89.738c-8.792 0-15.919-7.127-15.919-15.917zM134.725 0c-8.792 0-15.919 7.126-15.919 15.917 0 8.79 7.127 15.917 15.919 15.917h14.002c8.792 0 15.919-7.127 15.919-15.917S157.519 0 148.727 0h-14.002z" fill="#fff" fill-opacity=".2"/><path opacity=".3" fill-rule="evenodd" clip-rule="evenodd" d="M503 444.859s-3.5 2.833-7 4.122c-3.5 1.288-8.5.292-8.5.292l-18.221-3.407c.546 2.233-.322 4.756-3.092 7.609 1.671.089 18.465 4.574 18.465 13.672 0 12.451-32.721 15.759-40.214 16.516l-.624.064c-6.069 14.478-43.489 17.696-73.187 15.765-29.698-1.93-47.989-9.855-58.44-19.507-10.451-9.652-4.5-20.515-4.5-20.515s9.144-10.692 28.182-13.22c-11.182-1.278-21.758-14.152-11.182-18.392 9.21-1.338 19.552-.879 29.653-.43 5.58.248 11.086.493 16.287.429l2.181-.026L304 414.968s-5.5-.5-5.5-6.003c0-3.511 4-4.501 4-4.501L458 330.436l127.5 25.509s4.318.754 5.5 4.002c1.295 3.559-1.556 7.002-1.556 7.002L503 444.859z" fill="url(#paint0_linear)"/><path d="M519.396 68.295c0-6.785-2.356-13.318-6.123-18.303l.096-.083c-3.498-4.728-8.259-8.101-13.505-9.04l-181.861-22.37c-4.535-.81-9.032-5.476-12.338-2.904l-8.02 5.141 3.434 349.983c0 .226.031.372.085.457.065 12.999 8.745 25.056 19.447 26.969l181.531 35.632 7.798-6.786c5.93-5.182 9.456-9.989 9.456-18.579V68.295z" fill="#8BBFCA"/><path d="M389.617 158.976S291.42 393.307 291.75 379.897l3.417-356.814 9.134-8.71c3.392-2.647 8.084-1.298 12.621-.475L499.929 40.75c5.25.951 9.953 4.407 13.351 9.255L389.617 158.976z" fill="#A2D5DD"/><path d="M488.49 437.969L309.595 405.77c-10.743-1.921-19.011-14.214-19.011-27.27V36.77c0-13.055 5.545-17.288 16.288-15.368l181.73 27.517c10.743 1.92 18.911 14.248 18.911 27.304v341.729c.002 13.058-8.281 21.937-19.023 20.017z" fill="#D6E3FF"/><path d="M484.903 440.428l-178.895-32.199c-10.743-1.92-19.011-14.214-19.011-27.27V42.635c0-13.055 8.407-18.796 19.15-16.876l178.869 25.619c10.742 1.92 18.91 14.248 18.91 27.304V420.41c0 13.058-8.281 21.937-19.023 20.017z" fill="url(#paint1_linear)"/><path d="M491.001 79.84c0-3.001-1.501-10.004-10.001-11.004L309.29 42.703c-4.012-.717-9.368 4.492-9.368 8.714v325.222c0 1.96 1.146 3.374 3.009 3.706l179.043 31.993c4.012.717 9.027-3.666 9.027-7.888V79.839z" fill="url(#paint2_linear)"/><path d="M315.608 66.946c-6.09-.848-11.608 3.259-11.608 8.646v169.811c0 8.641 11.725 19.144 21.5 20.508 0 0 37 13.005 79 13.505s81.5-12.902 81.5-22.463V98.18c0-4.302-3.58-7.965-8.444-8.645L315.608 66.946z" fill="#85D3FF"/><path d="M304.591 205.528c4.79 5.899 1.611 18.745 2.799 24.294l-19.436 6.729s-12.417-12.73-11.692-13.506c.723-.775 28.329-17.517 28.329-17.517z" fill="#F0BE9A"/><path d="M322.95 238.005c-3.227-5.294-6.907-9.904-10.95-18.611-13.797 9.169-13.477 17.908-23.5 13.005-.002.753 11.733 26.819 11.733 26.819s16.238 9.694 40.745 18.527v-.002c28.415 10.242 67.951 19.323 106.198 10.797v.001l.054-.013a126.882 126.882 0 0014.219-4.048c12.25-4.07 17.531-8 27.14-15.152.773-.576 1.575-1.172 2.411-1.792-.509-32.073-4.744-69.578-7.819-74.018-7.642-11.031-30.258-18.833-30.649-18.968l-.005-.002c-2.76-1.203-5.332-2.354-7.76-3.439l-.011-.005c-11.635-5.203-19.949-8.92-29.647-9.892-1.251-.126-2.465-.254-3.647-.378-11.962-1.262-17.827-.441-28.962 5.039-10.5 2.501-38.763 15.139-44.5 20.508-6.366 5.959-9.058 12.837-9.264 20.02l-5.786 31.604z" fill="url(#paint3_linear)"/><path d="M417.91 187.381l-39.426-9.739 11.497-20.354c15.165-4.746 35.589-6.255 43.51 1.386l-15.581 28.707z" fill="#097172"/><path d="M396.246 170.249l-9.098-50.699 35.065 6.392 12.115 45.076c2.173 6.894-28.875 25.642-38.082-.769z" fill="#F0BE9A"/><path d="M396.611 179.017s4.037.799 7.758-.419l11.644 19.191-.741.776c-2.297 2.406-6.192 2.682-7.423.525l-11.238-20.073z" fill="#097172"/><path d="M408.15 182.551s-3.984.052-6.377-1.575l-22.519 14.637.128.78c.4 2.424 3.559 3.271 6.023 1.614l22.745-15.456z" fill="#097172"/><path d="M405.616 179.825s-15.63-.028-15.637-22.538l-7.462 2.141c-1.415 1.071-4.733 2.101-6.889 9.824-1.283 4.596-1.207 6.523-.523 10.858l1.995 12.652c.447 2.836 4.16 3.814 7.015 1.846l21.501-14.783z" fill="#2FC68F"/><path d="M400.242 178.642s15.691 3.069 33.245-19.969l10.17 7.941c2.184 2.091.23 4.735-1.516 6.579l-22.793 24.022c-2.67 2.819-7.232 3.125-8.619.578l-10.487-19.151z" fill="#2FC68F"/><path d="M393.411 155.369s25.454-14.355 25.5-14.505c0 0-10.616 17.292-23.58 24.279l-1.92-9.774z" fill="#D9A782"/><path d="M378.063 151.64c-5.606-6.132-9.323-10.469-9.44-23.093l2.77-33.149c-.149-16.224 8.123-25.25 23.223-22.867l1.509.24c15.101 2.382 27.576 17.606 27.726 33.83 7.886 7.029 3.545 10.291-3.181 32.246-2.74 4.363-15.611 12.856-25.35 16.116-2.215.74-14.061.171-17.257-3.323z" fill="#FFCDA8"/><path d="M431.986 121.626c2.349-5.426 1.419-11.052-2.077-12.566-3.495-1.515-8.233 1.656-10.582 7.081-2.349 5.426-1.419 11.052 2.077 12.566 3.495 1.515 8.233-1.656 10.582-7.081z" fill="#FFCDA8"/><path d="M425.165 117.56a.826.826 0 01-.317-.069.826.826 0 01-.404-1.119c.052-.111 1.296-2.71 3.565-3.201 1.32-.287 2.647.184 3.941 1.405.336.317.338.858.006 1.208-.332.349-.877.373-1.213.058-.873-.823-1.692-1.16-2.434-1.001-1.157.248-2.065 1.675-2.317 2.205a.895.895 0 01-.827.514z" fill="#D9A782"/><path d="M426.563 119.49c.197-1.292-.33-2.444-1.176-2.573-.847-.129-1.692.815-1.889 2.107-.196 1.293.331 2.445 1.177 2.574.847.129 1.692-.815 1.888-2.108z" fill="#D9A782"/><path d="M392.893 58.257a31.192 31.192 0 00-11.696 3.4c-9.431 4.448-18.286 10.94-28.653 12.096-2.046.226-4.415.402-5.588 2.099a4.428 4.428 0 00.705 5.23 12.693 12.693 0 004.774 2.985c-2.148 1.535-1.678 5.203.383 6.87 2.06 1.665 5.001 1.76 7.606 1.275-2.185.927-1.987 4.5-.031 5.859 1.957 1.359 4.642.98 6.8-.026a54.066 54.066 0 006.936-4.564c6.503-4.28 14.066-2.738 21.781-3.606 8.06-.906 13.5-2.5 20 2.337 1.804 1.7 2.636 2.347 3.5 4.666.864 2.319.254 5.041 0 7.503-.596 5.345-3.975 12.377.802 12.868 6.198.637 3.258-6.934 6.698-8.366 2.716-1.144 8 2 6 10.504-5 12.474-10 8.003-9.5 11.004 1 2.501 1.75 6.993 2 6.502 15-7.503 18.357-27.01 19.5-40.015.289-3.289-.81-7.818-2.131-10.843a19.784 19.784 0 00-5.992-7.701 12.197 12.197 0 01-3.079-2.737 18.657 18.657 0 01-1.434-4.096c-1.446-4.034-5.486-6.452-9.28-8.443a279.046 279.046 0 00-19.338-9.262c-.708 3.386.57 5.822-2.507 6.247-2.082.293-5.695-1.913-8.256-1.786z" fill="#3F3D56"/><path d="M405.98 179.852s-3.984.052-6.377-1.575l-22.519 14.637.128.78c.4 2.424 3.559 3.271 6.023 1.614l22.745-15.456z" fill="#FCFEFF"/><path d="M399.85 178.598s4.036.8 7.757-.419l11.644 19.192-.74.775c-2.297 2.407-6.192 2.683-7.423.526l-11.238-20.074z" fill="#FCFEFF"/><path d="M377.937 133.056s-.306 8.619 7.239 9.481c7.545.862 8.695-6.494 8.695-6.494l-15.934-2.987z" fill="#fff"/><path fill-rule="evenodd" clip-rule="evenodd" d="M324.164 239.054a.685.685 0 01.964.102l15.27 18.863a.685.685 0 11-1.065.863l-15.27-18.863a.687.687 0 01.101-.965z" fill="#025266"/><path fill-rule="evenodd" clip-rule="evenodd" d="M345.275 219.962a.686.686 0 01.421.874c-2.627 7.502-3.73 21.177-4.167 33.07a418.23 418.23 0 00-.214 21.359l.007.335.002.113-.685.016-.685.016-.003-.116-.006-.339a239.43 239.43 0 01-.021-1.295 419.136 419.136 0 01.235-20.139c.435-11.859 1.537-25.744 4.243-33.474a.684.684 0 01.873-.42zm-4.62 56.453a.685.685 0 01-.701-.67l.685-.016.685-.015a.686.686 0 01-.669.701zm111.401-49.448c.34.168.479.579.311.919l-6.985 14.142 3.17 45.083a.686.686 0 11-1.367.097l-3.183-45.269a.68.68 0 01.069-.352l7.067-14.309a.686.686 0 01.918-.311z" fill="#025266"/><path d="M292.966 149.732l-1.403-.072c-6.644-.336-12.302 4.781-12.636 11.425l-3.376 66.847c-.337 6.646 4.779 12.307 11.42 12.641l1.403.072c6.644.336 12.302-4.781 12.636-11.425l3.376-66.847c.334-6.644-4.779-12.304-11.42-12.641z" fill="#025266"/><path d="M286.455 196.736s11.472 7.328-3.578 7.869c0 0 6.111-2.395 6.24 1.799.128 4.194-10.594 5.675-10.594 5.675s4.959-2.296 6.44.878c.869 1.861-3.32 4.476-6.928 6.318-2.677 1.366-5.903-.102-6.692-3.002-1.181-4.353-1.834-10.473 1.981-14.47 6.476-6.781 13.131-5.067 13.131-5.067zm17.636 8.262c-2.908-.015-5.274-2.406-5.259-5.315l.009-1.67c.015-2.908 2.405-5.276 5.313-5.26 2.907.015 5.273 2.406 5.258 5.314l-.009 1.671c-.015 2.908-2.405 5.275-5.312 5.26z" fill="#F0BE9A"/><path d="M241.463 236.132l9.798-3.675-37.623-106.886-12.076 4.798 39.901 105.763z" fill="#EBA45A"/><path d="M296.919 139.251c.692-.361 21.703-7.152 22.508-7.272 2.508-1.31 5.834-1.077 9.343 1.012 6.828 4.064 11.759 13.603 11.01 21.307-.469 4.84-3.068 7.802-6.629 8.33-.693.361-21.703 7.152-22.508 7.272-2.508 1.31-5.834 1.077-9.343-1.012-6.828-4.064-11.759-13.604-11.01-21.308.469-4.839 3.068-7.801 6.629-8.329z" fill="#EEAF60"/><path d="M294.457 139.832c.692-.36 21.703-7.152 22.508-7.271 2.508-1.31 5.834-1.078 9.343 1.012 6.828 4.064 11.759 13.603 11.009 21.307-.468 4.839-3.067 7.802-6.628 8.329-.693.361-21.703 7.153-22.508 7.272-2.508 1.31-5.834 1.078-9.343-1.012-6.828-4.064-11.759-13.603-11.01-21.307.469-4.841 3.068-7.802 6.629-8.33z" fill="#E39900"/><path d="M268.049 141.464c1.025-.534 32.103-10.577 33.292-10.756 3.709-1.935 8.629-1.592 13.818 1.497 10.1 6.012 17.393 20.121 16.286 31.518-.695 7.156-4.54 11.539-9.805 12.319-1.025.534-32.103 10.578-33.293 10.756-3.708 1.935-8.628 1.592-13.817-1.497-10.1-6.012-17.393-20.121-16.286-31.517.697-7.159 4.54-11.54 9.805-12.32z" fill="#EEAF60"/><path d="M327.598 142.439c2.514 5.168 3.853 10.795 3.489 15.921-.511 7.174-3.676 10.022-9.484 12.569-1.01.561-31.818 11.403-33.004 11.61-3.658 2.03-8.584 1.813-13.852-1.141-7.429-4.165-12.579-9.847-15.046-18.535l67.897-20.424z" fill="#E39900"/><path d="M278.612 132.73l-69.067-4.148 37.4 104.75 61.874-50.677c5.795-14.176-11.605-52.34-30.207-49.925z" fill="#DCF1FF"/><path d="M224.633 170.84l21.44 56.2s63.897-50.753 63.841-52.347c-.304-8.39-4.677-19.037-8.357-25.519l-76.924 21.666z" fill="#D0E7F4"/><path d="M250.903 232.564c18.872-6.457 25.964-35.695 15.841-65.305-10.123-29.611-33.627-48.381-52.499-41.924-18.871 6.456-25.964 35.694-15.841 65.305 10.123 29.61 33.628 48.38 52.499 41.924z" fill="#FFD698"/><path d="M241.828 235.992c18.872-6.457 25.964-35.695 15.841-65.305-10.123-29.611-33.627-48.381-52.499-41.924-18.872 6.457-25.964 35.695-15.841 65.305 10.123 29.61 33.628 48.38 52.499 41.924z" fill="#EBA45A"/><path d="M244.217 230.091c17.5-5.987 24.077-33.1 14.69-60.559-9.387-27.458-31.184-44.864-48.684-38.877-17.499 5.987-24.076 33.101-14.689 60.559s31.184 44.864 48.683 38.877z" fill="#fff"/><path d="M256.844 163.612c-5.563-13.308-14.818-22.437-19.108-25.882-18.994-15.256-39.09-8.49-44.887 15.111-1.659 6.757-2.864 14.439.53 31.016 14.392-25.699 40.485-27.812 63.465-20.245z" fill="#DCF1FF"/><path d="M261.481 190.839c2.525-10.28-2.783-24.102-11.854-30.872-4.354-3.25-8.783-4.279-12.491-3.341l-.002-.004-.163.048c-.165.045-.328.091-.491.143l-13.767 4.053a10.2 10.2 0 00-1.576.465h-.005c-3.452 1.331-6.138 4.513-7.319 9.32-2.525 10.28 2.784 24.102 11.855 30.872 4.273 3.189 8.617 4.244 12.282 3.395l.026-.009c.406-.095.801-.215 1.188-.356l12.686-3.803a10.443 10.443 0 003.035-.91l.009-.002v-.002c3.1-1.477 5.493-4.535 6.587-8.997z" fill="#D0E7F4"/><path d="M247.215 147.471c-.154.046-23.11 7.726-23.11 7.726-.501.122-1.038.515-1.463.465l-.096-.011-.002.017c-3.773 1.306-5.719 4.585-6.9 9.394-2.525 10.28 1.933 23.981 10.205 30.625 3.895 3.13 7.419 4.077 11.103 3.219v.002l.252.018c.375-.1.857-.211 1.22-.357 0 0 23.672-8.188 24.56-8.651-.679-9.552-3.172-25.638-15.769-42.447z" fill="#029570"/><path d="M235.028 193.52c5.119-1.986 6.438-10.901 2.945-19.911-3.494-9.01-10.475-14.705-15.595-12.718-5.119 1.986-6.438 10.9-2.945 19.911 3.493 9.01 10.475 14.704 15.595 12.718z" fill="#2CCB7F"/><path d="M263.034 189.925s.578-10.306-5.226-24.072c-2.859-6.783-5.326-11.657-10.595-18.382l-4.279 1.432s14.221 17.868 14.418 43.096l5.682-2.074z" fill="#097173"/><path d="M288.918 135.298l-41.971-2.731 12.024 12.47 37.865-2.602-7.918-7.137z" fill="#fff"/><path opacity=".43" d="M315.095 136.522l-18.185 6.342-5-5.002 17.879-5.597 5.306 4.257z" fill="#fff"/><path d="M476.352 304.518c-1.786-1.892-1.805-5.013-.041-6.932l3.871-4.21c1.767-1.922 4.677-1.942 6.466-.044 1.786 1.893 1.805 5.014.041 6.932l-3.871 4.211c-1.767 1.918-4.677 1.939-6.466.043z" fill="#FFCDA8"/><path d="M544.837 186.772s11.356-.469 18.006 8.858c6.65 9.326 7.33 19.93 15.608 20.671 8.279.74 9.501 7.927 6.787 14.923-2.714 6.996 12.745 14.596-2.177 19.418-14.923 4.822-36.686 5.365-37.273-4.546-.586-9.911-16.266-20.234-18.467-36.989-1.173-8.89 17.516-22.335 17.516-22.335z" fill="#8D5C5C"/><path d="M520.418 242.295s-10.927 33.715-12.74 36.55c-1.813 2.834-23.805 25.149-23.805 25.149l5.089 4.442 25.563-18.69c4.03-2.83 5.626-6.779 7.25-11.429l13.007-37.26-14.364 1.238z" fill="#FFA9A8"/><path d="M521.463 288.639l5.595-21.155s-11.334-18.673-6.64-25.189c4.694-6.518 11.85-12.626 11.85-12.626h21.273l11.74 21.996-4.436 19.552 7.999 17.426s-31.083 28.562-47.381 1.088" fill="#FFA9A8"/><path opacity=".3" d="M542.858 443.245c4.284 0 8.432.173 12.375.493 4.58-3.377 15.731-5.761 28.768-5.761 17.119 0 30.999 4.11 30.999 9.177 0 4.503-10.956 8.246-25.403 9.026.069.31.118.621.118.936 0 7.662-20.977 13.874-46.857 13.874-25.881 0-46.858-6.212-46.858-13.874.003-7.659 20.98-13.871 46.858-13.871z" fill="url(#paint4_linear)"/><path d="M513.045 456.235l13.539-15.816c2.063-1.116 5.884-1.588 8.976-1.09 1.387.223 2.103 1.14 2.169 2.547l.288 2.605c.352 4.368.86 5.799-1.863 7.274l-16.17 8.753c-3.34 2.634-12.606 1.488-6.939-4.273z" fill="#0F4657"/><path d="M527.012 441.477s-7.743 9.418-6.781 10.063c3.991 2.673 13.622-5.658 13.622-5.658s-5.085-4.903-6.841-4.405z" fill="#F0BE9A"/><path d="M535.93 442.85c-.426 4.401-6.764 4.54-8.622.941-5.687-43.386-4.434-83.394-3.103-127.794l17.294-1.194c-5.993 53.024-8.088 86.901-5.569 128.047z" fill="#F0BE9A"/><path d="M538.548 330.447c1.179-.289 14.992 2.114 14.992 2.114l15.302-43.922c-18.314 4.381-35.466 6.742-47.381 0l17.087 41.808z" fill="#322954"/><path d="M584.696 442.14l-1.663-21.41c.691-2.319 3.131-5.449 5.747-7.343 1.175-.85 2.367-.704 3.437.273l2.111 1.688c3.441 2.926 4.856 3.599 3.945 6.662l-5.404 18.181c-.513 4.355-8.103 10.282-8.173 1.949z" fill="#0F4657"/><path d="M584.113 421.191s1.225 12.515 2.397 12.282c4.859-.964 5.626-17.03 5.626-17.03s-7.104 3.101-8.023 4.748z" fill="#F0BE9A"/><path d="M592.002 414.646c1.4 2.652-3.806 8.58-7.888 5.984-13.991-11.935-17.877-13.653-25.522-34.443-6.896-18.757 9.651-48.168 12.206-25.721 2.415 21.212 8.431 42.059 21.204 54.18z" fill="#F0BE9A"/><path d="M568.844 288.639s10.48 16.993 6.166 41.057c-4.314 24.061-2.258 40.24 2.201 55.905l7.107 14.821s-6.444 13.169-15.283 9.335c-8.839-3.833-18.134-38.353-18.288-41.821-.369-8.217-7.673-63.77-7.673-63.77l25.77-15.527z" fill="#3F3D56"/><path d="M550.5 309.428s-13.624 87.812-12.408 96.398c1.216 8.586.272 20.427.272 20.427s-14.119 5.317-16.353-3.066c-2.235-8.384-3.344-91.91-.548-134.546 12.393 8.879 21.124 10.408 26.942 4.135l2.095 16.652z" fill="#3F3D56"/><path d="M526.665 244.942s-11.423-19.072 10.835-19.547c1.512-.033 3.834-.78 5.573-.615 9.03.862 15.356 2.037 21.939 4.887 2.48 1.075 2.766 6.824 2.404 9.504l-2.137 8.621-38.614-2.85z" fill="#F0BE9A"/><path d="M546.677 231.079l-.713.102a4.426 4.426 0 01-4.995-3.742l-1.944-13.554a4.428 4.428 0 013.741-4.997l.712-.102a4.426 4.426 0 014.996 3.742l4.095 13.651c.345 2.404-3.489 4.555-5.892 4.9z" fill="#F0BE9A"/><path d="M540.011 221.596s5.795.206 9.651-5.296c0 0-3.767 8.428-9.065 9.077l-.586-3.781z" fill="#D9A782"/><path d="M526.352 201.741s-1.848 9.679 6.85 11.892c8.697 2.213 6.976-20.46 6.976-20.46l-13.826 8.568z" fill="#8D5C5C"/><path d="M548.705 193.186c-2.662-3.383-5.997-3.779-8.694-1.539-3.135-1.034-6.418 1.031-8.339 5.836-2.675 6.687-2.093 16.946 1.791 21.882 1.696 2.157 3.93 2.49 5.975 2.39 1.913-.092 3.789-.606 5.521-1.421 6.21-2.923 6.47-1.97 8.253-6.425 2.673-6.687-.625-15.786-4.507-20.723z" fill="#FFCDA8"/><path d="M545.637 196.577c.382 5.426 1.804 9.059 5.797 11.227 0 0-1.876 8.69-1.21 10.565 0 0 14.577-2.183 10.309-16.777-5.313-18.164-14.264-7.7-14.264-7.7l-.632 2.685z" fill="#8D5C5C"/><path d="M549.773 197.819c-7.686-2.157-13.644-5.827-23.573 6.679-1.102-1.479-.449-4.737 1.59-6.694 4.257-4.09 7.013-8.523 12.093-10.252l1.255-.28c7.58-1.694 12.174.804 15.079 8.008.256.634 2.078 3.454 2.214 3.997l-2.614-.552c1.095 4.329-1.715-1.998-6.044-.906z" fill="#8D5C5C"/><path d="M555.091 209.65c.372-2.308-.727-4.406-2.455-4.685-1.729-.279-3.431 1.366-3.804 3.674-.372 2.308.727 4.406 2.456 4.685 1.728.279 3.431-1.366 3.803-3.674zm-12.682-10.401c.221.28.594.354.825.165l6.038-4.917c.232-.189.238-.572.017-.852-.221-.28-.595-.354-.825-.165l-6.038 4.918c-.232.189-.241.571-.017.851z" fill="#FFCDA8"/><path fill-rule="evenodd" clip-rule="evenodd" d="M536.544 226.879c.238-1.099-.739-2.076-1.839-1.848l-1.923.585c-.595.133-12.412 2.898-14.19 12.627-2.371 12.974-6.944 24.142-8.273 27.387-.168.41-.284.693-.337.838-.476 1.29-6.583 15.41-10.179 18.397-1.097.909-2.371 1.676-3.549 2.384-2.689 1.618-4.876 2.934-3.307 4.944 0 0 2.848 2.565 4.852 8.408.645 1.883 2.847 2.7 4.534 1.644 4.27-2.676 11.151-7.044 12.805-8.421 1.702-1.419 6.145-12.525 8.683-19.132-.459 2.394-1.192 5.342-1.943 8.367-1.615 6.5-3.319 13.36-2.599 15.856 1.291 4.481 24.473 6.277 28.626 5.115 20.93-5.854 22.882-10.526 23.849-12.84.063-.151.122-.291.182-.422.665-1.456-2.328-7.375-5.038-12.736-1.261-2.493-2.46-4.866-3.202-6.612-2.336-5.499 3.85-22.81 3.85-22.81l-7.152-21.055-5.532-1.753a1.273 1.273 0 00-1.627.917c-1.011 4.239-4.707 17.058-12.254 16.305-6.969-.698-5.482-11.323-4.437-16.145z" fill="#4473F2"/><path d="M566.623 309.131c8.191-28.064-2.289-55.805-23.407-61.96-21.119-6.155-44.879 11.605-53.07 39.67-8.191 28.064 2.289 55.804 23.408 61.959 21.118 6.156 44.879-11.605 53.069-39.669z" fill="#E39900"/><path d="M559.382 306.307c8.283-28.037-2.135-55.834-23.27-62.087-21.136-6.253-44.984 11.406-53.267 39.444-8.283 28.037 2.136 55.834 23.271 62.087s44.983-11.406 53.266-39.444z" fill="#F8C244"/><path d="M552.587 304.446c6.94-23.459-1.773-46.713-19.461-51.938-17.688-5.226-37.653 9.555-44.593 33.014-6.94 23.459 1.772 46.712 19.46 51.938 17.688 5.226 37.653-9.555 44.594-33.014z" fill="#E8A825"/><path d="M504.24 288.709c-.086-.372-.113-.813-.08-1.323a8.72 8.72 0 01.33-1.721c.328-1.115.716-1.837 1.165-2.166.449-.329.89-.43 1.321-.302l2.484.734c1.312-2.729 2.766-5.012 4.363-6.849 1.612-1.89 3.277-3.36 4.995-4.41 1.769-1.094 3.573-1.773 5.412-2.037a13.046 13.046 0 015.511.417c1.548.457 2.872 1.08 3.971 1.866 1.15.744 2.064 1.563 2.74 2.455.713.903 1.178 1.849 1.396 2.837.27.945.279 1.843.029 2.693-.265.902-.679 1.646-1.242 2.23-.512.541-1.056.929-1.634 1.162a19.871 19.871 0 00-2.466-3.586c-.99-1.159-2.402-2.009-4.238-2.552-2.268-.67-4.56-.395-6.875.825-2.264 1.178-4.325 3.397-6.184 6.657l14.255 4.214c.019.467.012.956-.021 1.466a7.498 7.498 0 01-.306 1.64c-.281.956-.636 1.631-1.065 2.023-.428.393-.895.515-1.399.366l-22.462-6.639zm6.248 13.275c-.192 3.579.344 6.479 1.608 8.7 1.279 2.168 3.161 3.618 5.645 4.353 1.764.521 3.377.623 4.84.305 1.479-.371 2.827-.896 4.044-1.575.358.51.606 1.131.743 1.864.172.744.126 1.567-.14 2.47-.453 1.54-1.404 2.644-2.853 3.312-1.01.51-2.285.854-3.825 1.034-1.504.19-3.282-.018-5.334-.624a13.868 13.868 0 01-5.071-2.711c-1.489-1.191-2.714-2.679-3.676-4.464-.91-1.827-1.539-3.946-1.886-6.358-.347-2.411-.34-5.093.02-8.046l-3.456-1.021c-.086-.372-.113-.813-.081-1.323a9.269 9.269 0 01.354-1.8c.312-1.062.685-1.731 1.119-2.007.449-.329.889-.43 1.321-.302l22.516 6.656c.019.467.013.955-.02 1.465-.017.457-.111.977-.283 1.562-.281.955-.636 1.63-1.065 2.023-.429.392-.895.514-1.399.365l-13.121-3.878z" fill="#F8C244"/><path d="M553.56 317.422c-2.061-2.027-2.083-5.371-.047-7.427l4.466-4.511c2.039-2.059 5.397-2.081 7.461-.047 2.061 2.028 2.083 5.372.047 7.428l-4.466 4.511c-2.036 2.055-5.394 2.077-7.461.046z" fill="#FFCDA8"/><path d="M565.998 230.456s19.918 24.602 23.295 38.012c3.269 12.982-22.897 41.561-22.897 41.561l-6.305-3.71c8.302-10.276 13.272-22.802 15.669-37.067l-16.61-26.627 6.848-12.169z" fill="#FFCDA8"/><path d="M556.925 246.153s12.773 14.702 15.623 23.548c2.851 8.845-7.833 26.926-9.461 31.17-.984 2.563 5.868 9.034 11.494 2.852 15.072-16.563 17.821-33.481 16.108-38.826-1.249-3.895-12.758-23.994-14.994-26.657-2.237-2.663-4.223-9.231-19.441-11.468l.671 19.381z" fill="#4473F2"/><path d="M472.476 325.447L317.069 300.91c-4.127-.734-7.506 2.038-7.506 6.16v42.499c0 4.121 3.379 8.093 7.506 8.827l71.488 12.704c.252.072.508.131.768.176l83.154 14.779c4.127.734 7.505-2.038 7.505-6.16v-45.621c0-4.122-3.378-8.093-7.508-8.827z" fill="#378ABB"/><path fill-rule="evenodd" clip-rule="evenodd" d="M340.992 323.315c-.864-2.462-.504-5.206 1.429-7.09 2.819-2.747 7.377-2.101 10.163.76 2.786 2.861 3.313 7.436.494 10.183s-7.377 2.101-10.163-.76c-.39-.4-.735-.834-1.034-1.292l-10.705 4.162c1.061 2.239 1.078 4.838-.24 6.853l10.587 7.207c.249-.392.548-.762.898-1.103 2.819-2.747 7.377-2.101 10.163.76 2.786 2.861 3.313 7.436.494 10.183s-7.377 2.101-10.163-.76c-1.92-1.972-2.767-4.758-2.185-7.199l-11.164-7.6c-2.834 2.217-7.028 1.486-9.651-1.207-2.786-2.861-3.313-7.436-.494-10.183 2.819-2.748 7.377-2.101 10.163.76.177.182.345.37.503.565l10.905-4.239zm3.474-4.99c-1.366 1.331-1.417 4.019.548 6.037s4.652 2.037 6.018.706c1.367-1.331 1.417-4.019-.548-6.037s-4.652-2.037-6.018-.706zm-23 10.004c-1.366 1.331-1.417 4.019.548 6.037s4.652 2.037 6.018.706c1.367-1.332 1.417-4.019-.548-6.037s-4.652-2.038-6.018-.706zm23.548 22.043c-1.965-2.018-1.914-4.706-.548-6.037 1.366-1.331 4.053-1.312 6.018.706 1.965 2.018 1.915 4.706.548 6.037-1.366 1.331-4.053 1.312-6.018-.706zm22.391-20.662a1.372 1.372 0 011.567-1.144l95.22 14.881a1.371 1.371 0 01-.423 2.71l-95.221-14.88a1.372 1.372 0 01-1.143-1.567zm-.388 20.734a1.37 1.37 0 011.566-1.143l80.061 12.51a1.371 1.371 0 01-.423 2.711l-80.061-12.511a1.371 1.371 0 01-1.143-1.567z" fill="#fff"/><path opacity=".3" d="M218.161 461.758c31.842-14.995 36.741-11.885 47.762-11.885 26.223 0 66.026-27.235-15.92-29.216 12.643-5.447-3.278-29.216-40.271-25.254-41.637 0-77.732-2.308-77.732 16.836 0 11.966 20.135 24.264 36.056 29.711 16.177 5.534 18.263 34.803 50.105 19.808z" fill="url(#paint5_linear)"/><path d="M192.04 429.597c-32.386-.432-58.484-11.521-58.349-24.745 0-1.459-1.095-9.766-.459-11.076 5.111-11.09 30.641-12.387 59.498-11.995 28.316.419 52.102 0 57.403 10.941.784 1.567.906 12.157.879 13.791-.162 13.197-26.585 23.557-58.972 23.084z" fill="#E39900"/><path d="M250.597 395.518c.189-13.195-25.906-24.267-58.285-24.73-32.379-.463-58.781 9.858-58.97 23.054-.189 13.195 25.906 24.267 58.285 24.73 32.379.463 58.781-9.859 58.97-23.054z" fill="#F8C244"/><path d="M241.916 395.394c.161-11.241-22.07-20.673-49.655-21.067-27.584-.395-50.077 8.398-50.238 19.639-.161 11.241 22.07 20.674 49.655 21.068 27.585.394 50.077-8.399 50.238-19.64z" fill="#E8A825"/><path d="M162.475 393.824a2.169 2.169 0 01-.723-.616 1.543 1.543 0 01-.272-.863c0-.575.272-.972.814-1.191.543-.219 1.175-.329 1.899-.329h4.159c.783-1.479 1.989-2.766 3.616-3.861 1.627-1.123 3.526-2.054 5.696-2.794 2.23-.767 4.701-1.342 7.413-1.725a63.258 63.258 0 018.68-.575c2.591 0 4.912.109 6.961.328 2.11.192 3.888.452 5.334.781 1.507.328 2.652.712 3.436 1.15.844.411 1.265.835 1.265 1.274 0 .465-.301.876-.904 1.232-.542.329-1.205.589-1.989.78-1.567-.493-3.375-.944-5.424-1.355-2.049-.411-4.611-.616-7.685-.616-3.797 0-7.203.451-10.216 1.355-2.954.877-5.123 2.219-6.51 4.026h23.868c.241.219.452.452.633.698.181.247.271.521.271.822 0 .493-.241.863-.723 1.109-.482.247-1.145.37-1.989.37h-37.61zm15.641 5.422c1.326 1.726 3.465 3.027 6.419 3.903 2.953.849 6.509 1.274 10.668 1.274 2.953 0 5.485-.178 7.594-.534 2.11-.384 3.948-.822 5.515-1.315.784.192 1.447.452 1.989.78.603.329.904.726.904 1.192 0 .794-.964 1.451-2.893 1.972-1.326.383-3.134.725-5.424 1.027-2.23.301-5.063.452-8.499.452-3.194 0-6.208-.192-9.041-.576-2.832-.356-5.394-.89-7.684-1.602-2.23-.739-4.159-1.657-5.786-2.752-1.628-1.096-2.833-2.369-3.617-3.821h-5.786a2.157 2.157 0 01-.723-.616 1.605 1.605 0 01-.272-.903c0-.548.272-.918.814-1.11.543-.219 1.175-.328 1.899-.328h37.7c.241.219.452.452.633.698.181.219.271.479.271.781 0 .493-.241.862-.723 1.109-.482.246-1.145.369-1.989.369h-21.969z" fill="#F8C244"/><path d="M240.247 426.914c.501-.287 7.744-3.412 12.744-3.412 2.467 0 20.379 10.99 21.41 12.513 2.313 3.41-1.074 7.159-1.074 7.159l-.003-.003c-.809 1.527-2.67 2.759-6.715 2.396l-29.754-7.862v-10.022s2.851-.463 3.392-.769z" fill="#0F4657"/><path d="M229.08 426.017c-.575-.009-8.431.738-12.812 3.147-2.162 1.188-12.567 19.446-12.738 21.275-.384 4.102 4.39 5.757 4.39 5.757l.002-.002c1.446.949 3.669 1.13 7.039-1.133l22.289-21.219-4.826-8.781c0-.002-2.723.967-3.344.956z" fill="#0F4657"/><path d="M221.215 379.608s30.244-17.443 40.961-16.249c10.714 1.195 13.155 5.806 14.106 8.79.949 2.985-44.216 41.638-67.543 41.366l-8.815 2.576s-36.71 11.464-37.815 2.611c-1.159-9.301 14.141-23.621 21.601-27.689 7.458-4.068 37.505-11.405 37.505-11.405z" fill="#3F3D56"/><path d="M274.965 370.678s-11.935-11.121-33.365 23.056C220.171 427.912 218 431.98 218 431.98l21.972-4.339s45.842-48.825 34.993-56.963z" fill="#3F3D56"/><path d="M162.107 418.701s4.755-11.461 22.904-6.21c20.882 6.043 56.723 11.725 56.723 11.725s1.807 12.673-1.215 15.343c-10.967 1.579-70.435.803-78.412-12.179-2.61-4.244 0-8.679 0-8.679z" fill="#3F3D56"/><path d="M239.843 325.992l8.168 21.987c1.344 4.781 6.974 6.84 11.082 4.053l8.93-6.053.799 11.887-12.98 8.886c-4.82 3.301-11.437 1.703-14.221-3.434-4.887-9.02-11.448-21.19-11.448-21.538 0-.551 9.67-15.788 9.67-15.788z" fill="#FFCDA8"/><path d="M235.118 312.958l14.38 26.966c-2.347 9.381-7.43 14.155-13.85 16.674l-5.459-36.472 4.929-7.168z" fill="#029570"/><path d="M236.147 377.41c-3.346-21.948 1.67-22.231 3.696-39.648 0-27.76-10.485-38.031-27.967-31.652l-7.224 1.92c-21.099 11.37-31.816 10.801-28.042 33.138l3.259 43.17c.002 25.206 57.622 22.706 56.278-6.928z" fill="#2CCB7F"/><path d="M190.529 349.615l-9.097 37.788-1.09 3.678-1.337-18.212 11.524-23.254z" fill="#029570"/><path d="M179.348 322.895s-15.174 18.857-19.404 58.611c-1.164 10.932 8.822 19.726 19.489 17.092l28.127-7.359-.061-6.99s-35.592 9.351-32.923-2.226c3.009-13.049 26.796-48.54 4.772-59.128z" fill="#FFCDA8"/><path d="M252.856 365.625l12.515-4.086c.775-.182 1.531-1.075 1.691-1.991l4.158-24.042c.158-.919-.341-1.516-1.116-1.334l-12.934 3.037c-.775.182-1.53 1.075-1.691 1.992l-4.138 23.928c-.104.604.167 1.032.519 1.371l.996 1.125z" fill="#AEC7E6"/><path d="M263.874 344.138s3.037 16.305 3.198 15.386l5.23-23.774-1.381-1.451c-.2-.168-.477-.228-.805-.152l-12.934 3.036c-.378.089-.753.348-1.055.695l7.747 6.26z" fill="#BAD4F5"/><path d="M253.745 365.868l12.906-3.048c.775-.182 1.502-1.083 1.661-2l4.157-24.042c.159-.919-.325-1.511-1.1-1.329l-12.899 3.047c-.775.183-1.496 1.086-1.655 2.003l-4.157 24.042c-.159.92.312 1.509 1.087 1.327z" fill="#fff"/><path d="M254.476 365.703l12.515-2.954c.751-.176 1.457-1.051 1.611-1.942l4.032-23.316c.154-.89-.315-1.466-1.066-1.288l-12.508 2.956c-.751.176-1.451 1.052-1.605 1.944l-4.032 23.316c-.154.889.302 1.46 1.053 1.284z" fill="#1B4761"/><path d="M267.656 357.384a3.686 3.686 0 004.266-2.975l1.042-5.849a3.688 3.688 0 00-2.974-4.268 3.689 3.689 0 00-4.266 2.975l-1.043 5.85a3.69 3.69 0 002.975 4.267z" fill="#FFCDA8"/><path d="M192.164 343.455l-10.545 29.9c-1.496 2.319-23.065-8.599-21.221-12.164.325-.627 11.807-36.743 24.152-42.573 10.028-4.735 13.155 11.214 7.614 24.837z" fill="#2CCB7F"/><path d="M201.591 388.15l-.424 1.604c-.774 2.928 1.22 5.903 4.428 6.609l6.574 1.445c3.21.706 6.467-1.113 7.24-4.041l.424-1.604c.774-2.928-1.22-5.904-4.428-6.609l-6.574-1.446c-3.21-.708-6.467 1.111-7.24 4.042z" fill="#FFCDA8"/><path d="M259.329 344.513c.432-.124.858-.632.947-1.13l.467-2.615c.089-.497-.192-.801-.624-.677-.432.123-.857.632-.946 1.129l-.467 2.615c-.089.497.191.802.623.678zm-40.287-29.839c.644 3.893-1.043 8.369-7.558 9.763-8.073 1.727-13.69-8.52-10.869-11.281 2.588-2.535 2.19-1.616 7.705-3.295 5.515-1.679 9.616-1.861 10.722 4.813z" fill="#fff"/><path d="M213.162 308.153s-3.561 1.555-5.022 1.367c-1.462-.189-11.514-14.142-1.605-25.582 6.277-7.246 19.389 1.879 19.389 1.879l-12.762 22.336z" fill="#7F634F"/><path d="M208.383 320.534l.786.328c2.653 1.105 5.727-.163 6.832-2.817l6.23-14.968c1.105-2.654-.163-5.729-2.816-6.835l-.786-.328c-2.654-1.105-5.728.163-6.833 2.817l-8.099 13.501c-1.105 2.655 2.033 7.196 4.686 8.302z" fill="#F0BE9A"/><path fill-rule="evenodd" clip-rule="evenodd" d="M207.5 302.827c1.251 2.566 3 5.506 5 7.508 1.5 1.001 2 1.001 3.345 1.684 4.534 2.698 12.065-1.606 16.819-9.613 4.755-8.007 4.934-16.686.4-19.384a5.631 5.631 0 00-1.849-.694c-1.428-3.622-4.893-5.031-9.319-3.183-6.49 2.708-14.675 9.811-15.706 17.814-.011.078-.02.156-.029.235a3.552 3.552 0 00-1.636 3.303c.132 1.555 1.541 1.973 2.975 2.33z" fill="#FFCDA8"/><path d="M227.07 285.965s-3.826 18.371-22.07 9.87c0 0-7.955-13.108 7.464-20.969 13.592-6.928 21.061 8.106 21.061 8.106l-6.455 2.993z" fill="#7F634F"/><path d="M235.395 295.947s-.904-6.499-8.325-9.983l6.453-2.99s6.06 2.07 1.872 12.973z" fill="#7F634F"/><path d="M218.178 312.571s-6.722-1.396-9.608-8.809c0 0 1.957 10.753 7.864 12.995l1.744-4.186z" fill="#D9A782"/><path d="M369.571 487.369c-32.386-.473-58.484-11.522-58.295-24.732 0-1.473-1.095-9.766-.46-11.09 5.112-11.076 30.642-12.373 59.499-11.981 28.316.419 52.102 0 57.403 10.941.784 1.553.906 12.157.879 13.791-.217 13.21-26.639 23.53-59.026 23.071z" fill="#E39900"/><path d="M428.132 453.295c.189-13.195-25.906-24.268-58.285-24.731-32.379-.464-58.78 9.857-58.969 23.053-.189 13.195 25.906 24.268 58.285 24.731 32.379.464 58.78-9.857 58.969-23.053z" fill="#F8C244"/><path d="M419.452 453.169c.162-11.241-22.07-20.673-49.655-21.067-27.584-.395-50.077 8.398-50.238 19.639-.161 11.241 22.07 20.673 49.655 21.068 27.585.394 50.077-8.399 50.238-19.64z" fill="#E8A825"/><path d="M396.846 476.117c-32.386-.459-58.485-11.522-58.295-24.732 0-1.459-1.096-9.766-.46-11.076 5.111-11.09 30.655-12.386 59.498-11.995 28.33.419 52.102 0 57.417 10.941.77 1.567.892 12.157.879 13.791-.23 13.211-26.653 23.53-59.039 23.071z" fill="#E39900"/><path d="M455.407 442.044c.189-13.195-25.906-24.267-58.285-24.73-32.379-.463-58.78 9.859-58.969 23.054-.189 13.195 25.906 24.268 58.285 24.73 32.379.463 58.78-9.858 58.969-23.054z" fill="#F8C244"/><path d="M446.726 441.922c.161-11.241-22.07-20.674-49.655-21.068-27.585-.394-50.077 8.399-50.238 19.64-.161 11.241 22.07 20.673 49.655 21.067 27.584.395 50.077-8.398 50.238-19.639z" fill="#E8A825"/><path d="M394.054 451.461a9.84 9.84 0 01-1.413.232c-.628.058-1.288.087-1.979.087-1.319 0-2.23-.087-2.732-.261-.503-.174-.754-.376-.754-.608v-1.333c-3.392-.251-6.344-.637-8.857-1.158-2.575-.522-4.711-1.13-6.407-1.825-1.759-.715-3.078-1.506-3.957-2.375-.88-.888-1.319-1.815-1.319-2.781 0-.83.251-1.574.754-2.23.439-.676 1.036-1.246 1.79-1.709.754-.483 1.633-.85 2.638-1.101a10.55 10.55 0 012.921-.405c1.068 0 2.01.096 2.826.289.754.174 1.351.386 1.791.637a18.817 18.817 0 00-3.11 1.738c-.942.657-1.413 1.478-1.413 2.462 0 1.217 1.036 2.308 3.109 3.274 2.01.946 5.088 1.641 9.234 2.085v-7.647a32.604 32.604 0 011.602-.203 18.88 18.88 0 011.884-.086c1.131 0 1.979.077 2.544.231.566.155.848.367.848.638v12.049zm12.438-5.011c3.957-.425 6.941-1.11 8.951-2.056 1.947-.947 2.92-2.086 2.92-3.418 0-.947-.408-1.758-1.224-2.433a14.744 14.744 0 00-3.016-1.767c.44-.251 1.037-.464 1.791-.638.753-.193 1.664-.289 2.732-.289 1.822 0 3.329.309 4.523.927a7.976 7.976 0 012.355 1.738c.691.714 1.037 1.622 1.037 2.722 0 1.024-.44 1.989-1.319 2.897-.817.907-2.042 1.728-3.675 2.462-1.696.714-3.8 1.332-6.313 1.854-2.512.521-5.433.907-8.762 1.158v1.854a9.832 9.832 0 01-1.414.232 22.66 22.66 0 01-2.073.087c-1.256 0-2.104-.087-2.544-.261-.502-.174-.753-.376-.753-.608v-12.079a32.405 32.405 0 011.601-.203c.503-.057 1.1-.086 1.791-.086 1.13 0 1.978.077 2.544.231.565.155.848.367.848.638v7.038z" fill="#F8C244"/><path d="M375.521 446.605c-32.386-.432-58.484-11.522-58.349-24.746 0-1.459-1.096-9.766-.46-11.076 5.111-11.09 30.642-12.386 59.499-11.995 28.315.419 52.101 0 57.402 10.942.784 1.566.906 12.156.879 13.791-.162 13.196-26.585 23.557-58.971 23.084z" fill="#E39900"/><path d="M434.077 412.525c.189-13.195-25.906-24.268-58.285-24.73-32.379-.463-58.78 9.858-58.969 23.054-.189 13.195 25.906 24.267 58.285 24.73 32.378.463 58.78-9.859 58.969-23.054z" fill="#F8C244"/><path d="M425.397 412.402c.161-11.241-22.07-20.674-49.655-21.068-27.585-.394-50.077 8.399-50.238 19.64-.162 11.241 22.07 20.673 49.655 21.067 27.584.395 50.077-8.398 50.238-19.639z" fill="#E8A825"/><path d="M345.955 410.844a2.169 2.169 0 01-.723-.616 1.542 1.542 0 01-.271-.863c0-.575.271-.972.814-1.191.542-.219 1.175-.329 1.898-.329h4.159c.784-1.479 1.989-2.766 3.616-3.861 1.628-1.123 3.526-2.054 5.696-2.794 2.23-.767 4.701-1.342 7.414-1.725a63.232 63.232 0 018.679-.575c2.592 0 4.912.109 6.961.328 2.11.192 3.888.452 5.335.781 1.506.328 2.652.712 3.435 1.15.844.411 1.266.835 1.266 1.274 0 .465-.301.876-.904 1.232-.543.329-1.206.589-1.989.78-1.567-.493-3.375-.944-5.425-1.355-2.049-.411-4.611-.616-7.685-.616-3.797 0-7.202.451-10.216 1.355-2.953.877-5.123 2.219-6.509 4.026h23.868c.241.219.452.452.633.698.18.247.271.521.271.822 0 .493-.241.863-.723 1.109-.483.247-1.146.37-1.989.37h-37.611zm15.641 5.422c1.326 1.726 3.466 3.027 6.419 3.903 2.954.849 6.51 1.274 10.669 1.274 2.953 0 5.484-.178 7.594-.534 2.109-.384 3.948-.822 5.515-1.315.783.192 1.446.452 1.989.78.603.329.904.726.904 1.192 0 .794-.964 1.451-2.893 1.972-1.326.383-3.134.725-5.425 1.027-2.23.301-5.063.452-8.498.452-3.195 0-6.208-.192-9.041-.576-2.833-.356-5.394-.89-7.685-1.602-2.23-.739-4.159-1.657-5.786-2.752-1.627-1.096-2.833-2.369-3.616-3.821h-5.787a2.157 2.157 0 01-.723-.616 1.604 1.604 0 01-.271-.903c0-.548.271-.918.814-1.11.542-.219 1.175-.328 1.898-.328h37.701c.241.219.452.452.633.698.18.219.271.479.271.781 0 .493-.241.862-.723 1.109-.483.246-1.146.369-1.989.369h-21.97z" fill="#F8C244"/><defs><linearGradient id="paint0_linear" x1="471" y1="480.493" x2="383.848" y2="368.517" gradientUnits="userSpaceOnUse"><stop stop-color="#00755F" stop-opacity=".75"/><stop offset="1" stop-color="#002E25"/></linearGradient><linearGradient id="paint1_linear" x1="395" y1="423.471" x2="395" y2="32.822" gradientUnits="userSpaceOnUse"><stop stop-color="#1B4761"/><stop offset="1" stop-color="#3D6B86"/></linearGradient><linearGradient id="paint2_linear" x1="304.794" y1="509.779" x2="458.551" y2="32.596" gradientUnits="userSpaceOnUse"><stop stop-color="#5CC2C4"/><stop offset="1" stop-color="#DDF0F3"/></linearGradient><linearGradient id="paint3_linear" x1="326.82" y1="209.672" x2="378.302" y2="325.201" gradientUnits="userSpaceOnUse"><stop stop-color="#029570"/><stop offset="1" stop-color="#014C65"/></linearGradient><linearGradient id="paint4_linear" x1="599" y1="466.488" x2="545.534" y2="401.951" gradientUnits="userSpaceOnUse"><stop stop-color="#00755F" stop-opacity=".44"/><stop offset="1" stop-color="#002E25"/></linearGradient><linearGradient id="paint5_linear" x1="300.842" y1="436.575" x2="197.192" y2="323.687" gradientUnits="userSpaceOnUse"><stop stop-color="#00755F"/><stop offset="1" stop-color="#002E25"/></linearGradient></defs></svg>